<?xml version="1.0" encoding="UTF-8"?>
<svg id="_レイヤー_1" data-name="レイヤー 1" xmlns="http://www.w3.org/2000/svg" width="157.24mm" height="96.79mm" xmlns:xlink="http://www.w3.org/1999/xlink" viewBox="0 0 445.72 274.38">
  <defs>
    <style>
      .cls-1 {
        filter: url(#drop-shadow-1);
      }

      .cls-2 {
        filter: url(#drop-shadow-3);
      }

      .cls-3 {
        filter: url(#drop-shadow-2);
      }

      .cls-4 {
        filter: url(#drop-shadow-6);
      }

      .cls-5 {
        filter: url(#drop-shadow-5);
      }

      .cls-6 {
        filter: url(#drop-shadow-4);
      }

      .cls-7 {
        fill: #505050;
      }

      .cls-8 {
        fill: #fcf9c3;
        stroke-width: 22.18px;
      }

      .cls-8, .cls-9, .cls-10 {
        stroke: #fff;
        stroke-linecap: round;
        stroke-linejoin: round;
      }

      .cls-11 {
        fill: #fff;
      }

      .cls-9 {
        stroke-width: 21.01px;
      }

      .cls-9, .cls-10 {
        fill: none;
      }

      .cls-10 {
        stroke-width: 19.75px;
      }
    </style>
    <filter id="drop-shadow-1" x="64.33" y="82.95" width="318.48" height="121.2" filterUnits="userSpaceOnUse">
      <feOffset dx="2.55" dy="2.55"/>
      <feGaussianBlur result="blur" stdDeviation="2.55"/>
      <feFlood flood-color="#000" flood-opacity=".35"/>
      <feComposite in2="blur" operator="in"/>
      <feComposite in="SourceGraphic"/>
    </filter>
    <filter id="drop-shadow-2" x="198.17" y="106.44" width="35.52" height="97.92" filterUnits="userSpaceOnUse">
      <feOffset dx="2.55" dy="2.55"/>
      <feGaussianBlur result="blur-2" stdDeviation="2.55"/>
      <feFlood flood-color="#000" flood-opacity=".35"/>
      <feComposite in2="blur-2" operator="in"/>
      <feComposite in="SourceGraphic"/>
    </filter>
    <filter id="drop-shadow-3" x="233.45" y="89.4" width="49.92" height="114.48" filterUnits="userSpaceOnUse">
      <feOffset dx="2.55" dy="2.55"/>
      <feGaussianBlur result="blur-3" stdDeviation="2.55"/>
      <feFlood flood-color="#000" flood-opacity=".35"/>
      <feComposite in2="blur-3" operator="in"/>
      <feComposite in="SourceGraphic"/>
    </filter>
    <filter id="drop-shadow-4" x="150.89" y="95.16" width="48" height="109.2" filterUnits="userSpaceOnUse">
      <feOffset dx="2.55" dy="2.55"/>
      <feGaussianBlur result="blur-4" stdDeviation="2.55"/>
      <feFlood flood-color="#000" flood-opacity=".35"/>
      <feComposite in2="blur-4" operator="in"/>
      <feComposite in="SourceGraphic"/>
    </filter>
    <filter id="drop-shadow-5" x="89.1" y="42.44" width="266.16" height="39.84" filterUnits="userSpaceOnUse">
      <feOffset dx="2.61" dy="2.61"/>
      <feGaussianBlur result="blur-5" stdDeviation="2.61"/>
      <feFlood flood-color="#000" flood-opacity=".35"/>
      <feComposite in2="blur-5" operator="in"/>
      <feComposite in="SourceGraphic"/>
    </filter>
    <filter id="drop-shadow-6" x="151.69" y="206.55" width="137.04" height="36.72" filterUnits="userSpaceOnUse">
      <feOffset dx="2.55" dy="2.55"/>
      <feGaussianBlur result="blur-6" stdDeviation="2.55"/>
      <feFlood flood-color="#000" flood-opacity=".35"/>
      <feComposite in2="blur-6" operator="in"/>
      <feComposite in="SourceGraphic"/>
    </filter>
  </defs>
  <g class="cls-1">
    <path class="cls-11" d="M69.44,184.02v-85.7c0-5.38,4.31-9.69,9.69-9.69h29.5c17.44,0,31.65,14.21,31.65,31.65s-14.21,31.65-31.65,31.65h-19.81v32.08c0,5.38-4.31,9.69-9.69,9.69s-9.69-4.31-9.69-9.69ZM88.82,132.56h19.81c6.89,0,12.27-5.6,12.27-12.27s-5.38-12.27-12.27-12.27h-19.81v24.55Z"/>
    <path class="cls-11" d="M291.43,184.23v-55.55c0-22.18,18.3-40.48,40.48-40.48,22.39.22,40.48,18.3,40.48,40.48v55.34c0,5.38-4.31,9.69-9.69,9.69s-9.69-4.31-9.69-9.69v-55.34c0-11.63-9.47-20.89-21.1-21.1-11.63,0-21.1,9.47-21.1,21.1v55.34c0,5.38-4.31,9.69-9.69,9.69s-9.69-4.31-9.69-9.47Z"/>
  </g>
  <g class="cls-3">
    <path class="cls-10" d="M213.38,184v-58.54s0,.7,0-4.04"/>
  </g>
  <g class="cls-2">
    <path class="cls-8" d="M261.81,182.39v-55.47c0-8.4-4.47-16.29-12.03-21.2h0"/>
  </g>
  <g class="cls-6">
    <path class="cls-9" d="M166.66,183.56v-52.55c0-7.96,4.24-15.43,11.4-20.09h0"/>
  </g>
  <g class="cls-5">
    <path class="cls-11" d="M102.35,61.94c.45-.63.88-1.28,1.23-1.89.05-.1.13-.18.18-.25-.43.23-.91.45-1.38.65-.18.08-.35.1-.5.1-.68,0-1.18-.58-1.18-1.16,0-.43.25-.86.83-1.08,2.69-1.08,4.66-2.97,5.76-5.56h-1.94c-.4.58-.8,1.11-1.23,1.58-.33.35-.71.48-1.03.48-.68,0-1.23-.53-1.23-1.16,0-.28.1-.58.35-.86,1.03-1.16,1.96-2.69,2.54-4.08.25-.6.75-.83,1.23-.83.65,0,1.28.45,1.28,1.16,0,.15-.05.33-.12.53-.15.35-.33.68-.5,1.03h7.17c1.56,0,2.37.65,2.37,1.71,0,.35-.1.75-.28,1.18-.33.75-.7,1.43-1.16,2.09-.3.43-.7.6-1.08.6-.65,0-1.26-.5-1.26-1.11,0-.23.08-.43.23-.65.33-.48.55-.86.73-1.23.05-.1.08-.2.08-.25,0-.15-.13-.2-.35-.2h-3.07c1.26,2.97,3.5,4.73,6.42,5.89.6.25.88.73.88,1.21,0,.63-.48,1.26-1.21,1.26-.18,0-.38-.05-.58-.13-2.84-1.08-5.28-3.14-6.84-5.91-1.03,1.79-2.49,3.25-4.23,4.33.1-.03.2-.03.3-.03.65,0,1.26.48,1.26,1.08,0,.18-.05.35-.15.55-.18.3-.38.63-.58.93h10.92c.63,0,.93.53.93,1.06s-.3,1.06-.93,1.06h-4.45c-.38.55-.75,1.08-1.21,1.58-.48.58-1.01,1.11-1.58,1.61,1.64.53,3.22,1.13,4.78,1.81.58.23.83.65.83,1.08,0,.6-.48,1.18-1.18,1.18-.2,0-.4-.05-.63-.15-1.94-.91-3.9-1.69-5.94-2.39-2.67,1.61-5.99,2.47-10.04,2.77-.86.08-1.31-.53-1.31-1.11,0-.53.35-1.06,1.13-1.11,2.87-.18,5.26-.65,7.25-1.49-.93-.25-1.84-.48-2.77-.7l-.1.1c-.35.3-.73.45-1.08.45-.68,0-1.26-.53-1.26-1.11,0-.23.1-.5.35-.73.6-.58,1.18-1.18,1.71-1.81h-5.41c-.6,0-.91-.53-.91-1.06s.3-1.06.91-1.06h7.07ZM100.64,55.02c.68,0,1.18.6,1.18,1.23,0,.4-.23.83-.73,1.06-1.51.73-3.47,1.46-5.11,1.91-.13.03-.25.05-.38.05-.78,0-1.23-.65-1.23-1.31,0-.48.28-.96.88-1.13,1.64-.45,3.3-.98,4.81-1.69.2-.1.4-.13.58-.13ZM100.14,50.97c.38.33.55.7.55,1.06,0,.65-.55,1.21-1.23,1.21-.3,0-.63-.1-.96-.35-.58-.48-1.33-1.01-2.06-1.48-.43-.28-.6-.65-.6-1.01,0-.63.53-1.21,1.26-1.21.23,0,.48.05.73.2.76.4,1.59.96,2.32,1.59ZM103.79,64.06c-.38.5-.78.98-1.18,1.46,1.26.28,2.52.58,3.77.93.93-.68,1.76-1.46,2.44-2.39h-5.03Z"/>
    <path class="cls-11" d="M131.55,52.31c.58,0,.88.48.88.93,0,.48-.3.93-.88.93h-2.49v.8c0,.28.13.33.7.33s.71-.08.76-.4c.05-.45.48-.65.93-.65.55,0,1.13.33,1.06.91-.18,1.38-.83,1.74-2.84,1.74-2.11,0-2.67-.38-2.67-1.54v-1.18h-1.43c-.68,1.61-2.04,2.87-3.93,3.6-.18.08-.33.1-.48.1-.6,0-1.01-.48-1.01-.98,0-.35.2-.73.73-.93,1.11-.43,1.89-1.01,2.39-1.79h-2.49c-.58,0-.86-.48-.86-.93,0-.48.28-.93.86-.93h4.25v-.88h-2.74c-.53,0-.8-.45-.8-.91,0-.43.28-.88.8-.88h2.74v-.8c0-.63.6-.96,1.21-.96s1.21.33,1.21.96v.8h2.92c.55,0,.83.45.83.91,0,.43-.28.88-.83.88h-2.92v.88h4.1ZM124.98,59.33h-2.06c-.53,0-.78-.45-.78-.91,0-.43.25-.88.78-.88h2.06v-.53c0-.58.6-.88,1.21-.88s1.18.3,1.18.88v.53h2.52c.53,0,.81.45.81.91,0,.43-.28.88-.81.88h-2.52v.96c.93-.13,1.79-.23,2.57-.35.78-.13,1.18.43,1.18.96,0,.43-.25.83-.78.93-2.54.45-6.19.88-8.91.98-.73.03-1.13-.53-1.13-1.06,0-.48.33-.96,1.01-.98,1.13-.05,2.39-.12,3.67-.25v-1.18ZM129.61,63.93c.15-.4.28-.81.38-1.23.15-.58.68-.86,1.23-.86.73,0,1.43.48,1.26,1.28-.05.28-.13.53-.2.78l6.09-.03c2.06,0,2.82.75,2.72,2.29-.08,1.01-.25,2.01-.48,2.82-.5,1.61-1.51,2.26-3.52,2.29-.83,0-1.43-.05-2.06-.15-.65-.1-.96-.58-.96-1.08,0-.63.48-1.23,1.31-1.13.45.05.98.12,1.41.12.65,0,.96-.1,1.13-.65.18-.6.3-1.23.38-1.96.05-.38-.1-.48-.58-.48l-6.29.05c-1.64,2.92-4.71,4.81-9.01,5.59-.86.15-1.38-.48-1.38-1.13,0-.48.3-.96.96-1.08,3.04-.58,5.13-1.66,6.47-3.37l-5.99.05c-.68,0-1.01-.53-1.01-1.06s.33-1.03.98-1.03l7.17-.03ZM137.23,53.29c-.08,1.03-.25,2.06-.53,3.04.38.3.73.6,1.06.91.3.28.4.6.4.91,0,.6-.48,1.13-1.08,1.13-.23,0-.48-.1-.73-.3-.15-.15-.33-.3-.5-.45-.55,1.03-1.21,1.91-1.99,2.69-.33.33-.65.45-.98.45-.65,0-1.18-.53-1.18-1.16,0-.33.13-.65.45-.96.75-.73,1.38-1.51,1.84-2.44-.2-.15-.4-.28-.58-.38-.43-.25-.58-.58-.58-.91,0-.55.48-1.06,1.08-1.06.18,0,.35.03.53.13.08.05.15.08.23.13.13-.55.2-1.11.25-1.66l-1.23.05c-.63.03-.98-.53-.98-1.06,0-.48.28-.96.91-.98l1.38-.05v-2.31c0-.6.58-.91,1.16-.91s1.16.3,1.16.91v2.24l1.08-.03c1.86-.05,2.54.63,2.54,1.99,0,2.31.3,4.45.65,6.06.18.78.33.98.45.98s.23-.2.3-1.18c.03-.5.4-.75.78-.75.45,0,.91.33.86.86-.18,2.62-1.01,3.5-2.04,3.5-1.41,0-2.19-.81-2.72-2.92-.4-1.58-.7-3.83-.7-6.04,0-.33-.1-.45-.43-.45l-.86.03Z"/>
    <path class="cls-11" d="M150.24,58.67c-.7,0-.88.18-.88.83v5.44c0,.7.28.91,1.51.91,2.37,0,2.72-.23,2.87-1.89.08-.75.68-1.11,1.28-1.11.7,0,1.41.45,1.33,1.28-.3,3.17-1.36,4.1-5.44,4.1-3.35,0-4.23-.65-4.23-2.99v-6.09c0-1.99.8-2.79,2.94-2.79h2.24c.7,0,.88-.15.88-.75v-2.74c0-.6-.18-.75-.88-.75h-4.58c-.68,0-1.03-.6-1.03-1.18s.35-1.18,1.03-1.18h5.18c2.14,0,2.94.81,2.94,2.74v3.47c0,1.94-.8,2.72-2.94,2.72h-2.24ZM166.77,55.6c-.28,1.66-.65,3.27-1.23,4.83-.45,1.21-1.01,2.37-1.69,3.47,1.26,1.66,2.74,3.07,4.45,4.18.55.35.78.81.78,1.26,0,.73-.63,1.38-1.38,1.38-.3,0-.63-.1-.93-.33-1.66-1.21-3.14-2.67-4.4-4.33-1.56,1.96-3.42,3.6-5.59,4.86-.25.15-.48.2-.71.2-.73,0-1.31-.6-1.31-1.28,0-.4.2-.83.75-1.16,2.14-1.28,3.92-2.89,5.36-4.83-.96-1.59-1.71-3.32-2.21-5.11-.1.15-.18.3-.28.45-.35.53-.83.75-1.26.75-.68,0-1.31-.5-1.31-1.21,0-.25.08-.53.28-.83,1.46-2.24,2.77-5.51,3.47-8.4.18-.7.75-1.03,1.31-1.03.7,0,1.41.45,1.41,1.21,0,.1-.03.2-.05.33-.25,1.03-.6,2.11-.98,3.17h6.64c.68,0,1.01.6,1.01,1.21s-.33,1.21-1.01,1.21h-1.13ZM160.21,55.73c.45,1.99,1.13,3.95,2.11,5.76.55-1.16,1.03-2.39,1.36-3.62.2-.75.33-1.51.45-2.26h-3.88l-.05.12Z"/>
    <path class="cls-11" d="M174.17,52.63c-.58,0-.86-.5-.86-1.01s.28-1.01.86-1.01h5.21c-.25-.4-.55-.75-.86-1.11-.2-.23-.28-.48-.28-.68,0-.6.58-1.08,1.23-1.08.33,0,.65.12.96.4.3.3.71.78,1.01,1.21.15.23.23.43.23.65s-.07.43-.2.6h3.22c.5-.75.88-1.43,1.26-2.19.25-.53.7-.75,1.16-.75.63,0,1.23.43,1.23,1.03,0,.15-.05.35-.18.55-.28.5-.53.96-.78,1.36h5.69c.6,0,.88.5.88,1.01s-.28,1.01-.88,1.01h-8.4v1.21h6.32c.6,0,.88.5.88.98,0,.5-.28,1.01-.88,1.01h-6.32v1.28h9.01c.58,0,.88.5.88,1.01s-.3,1.01-.88,1.01h-4.53c.38.18.68.53.68.93,0,.18-.05.35-.15.53-.18.33-.35.6-.53.86h5.13c.58,0,.88.5.88,1.01s-.3,1.01-.88,1.01h-21.59c-.55,0-.86-.5-.86-1.01s.3-1.01.86-1.01h4.93c-.15-.25-.33-.5-.53-.78-.13-.2-.2-.38-.2-.55,0-.45.38-.83.86-.98h-4.66c-.55,0-.86-.5-.86-1.01s.3-1.01.86-1.01h8.96v-1.28h-6.17c-.58,0-.86-.5-.86-1.01s.28-.98.86-.98h6.17v-1.21h-7.88ZM178.68,71.08c-2.16,0-2.97-.7-2.97-2.24v-1.91c0-1.54.81-2.24,2.97-2.24h9.76c2.19,0,2.97.7,2.97,2.24v1.91c-.03,1.94-1.28,2.21-2.97,2.24h-9.76ZM187.89,69.11c.65,0,.83-.15.83-.6v-1.28c0-.43-.18-.58-.83-.58h-8.66c-.65,0-.81.15-.81.58v1.28c0,.55.33.6.81.6h8.66ZM178.68,59.12c.23.08.43.23.58.4.3.35.68.88.91,1.31.1.2.15.38.15.55v.05h1.74v-2.31h-3.37ZM184.67,59.12v2.31h1.61c.03-.1.1-.2.18-.3.38-.48.63-.88.93-1.43.15-.28.35-.48.58-.58h-3.3Z"/>
    <path class="cls-11" d="M202.61,50.17c.81,0,1.61.53,1.43,1.56-.86,4.13-1.16,7.55-1.16,11.12,0,1.84.23,4.23.45,5.91.12.98-.65,1.54-1.43,1.54-.68,0-1.36-.38-1.46-1.23-.23-1.61-.43-4.1-.43-6.21,0-3.75.3-7.15,1.18-11.62.15-.73.78-1.06,1.41-1.06ZM214.03,65.64c1.13,0,2.52-.13,3.8-.38,1.03-.2,1.64.6,1.64,1.38,0,.58-.33,1.18-1.11,1.33-1.48.3-2.97.43-4.35.43-4.65,0-6.59-1.41-6.87-4.45-.08-.98.71-1.54,1.46-1.54.6,0,1.18.35,1.28,1.08.23,1.56,1.01,2.14,4.15,2.14ZM218.01,53.71c0,.63-.4,1.26-1.28,1.38-2.21.3-4.71.5-7.1.55-.98.03-1.46-.65-1.46-1.36,0-.65.45-1.33,1.36-1.36,2.34-.05,4.73-.25,6.92-.55,1.01-.1,1.56.6,1.56,1.33Z"/>
    <path class="cls-11" d="M240.41,51.22c2.72,0,3.82,1.01,3.82,2.87,0,.25-.03.5-.05.75-.86,6.92-4.68,12.2-10.69,14.92-.25.12-.5.18-.75.18-.86,0-1.46-.73-1.46-1.48,0-.5.28-1.06.98-1.38,5.26-2.54,8.1-6.57,8.86-12.13.1-.83-.13-1.06-1.16-1.06h-9.34c-.88,0-1.13.28-1.13,1.03v3.92c0,.78-.73,1.16-1.49,1.16s-1.48-.38-1.48-1.16v-4.53c0-2.11,1.06-3.09,3.77-3.09h10.12Z"/>
    <path class="cls-11" d="M264.54,52.81c2.09-.03,3.14.8,3.14,2.31,0,.4-.08.86-.23,1.33-1.74,5.86-6.04,11.17-11.52,14.24-.3.15-.58.23-.83.23-.83,0-1.43-.68-1.43-1.43,0-.48.28-1.01.88-1.36,5.01-2.94,8.35-7.17,9.89-11.95.05-.13.08-.25.08-.35,0-.28-.2-.4-.68-.4l-5.64.05c-1.23,1.81-2.67,3.5-4.1,4.78-.38.35-.78.48-1.16.48-.76,0-1.41-.58-1.41-1.33,0-.38.2-.8.63-1.21,2.39-2.16,4.75-5.56,6.06-8.66.28-.65.83-.96,1.38-.96.75,0,1.48.53,1.48,1.33,0,.18-.05.38-.13.58-.33.78-.7,1.56-1.13,2.37l4.71-.05Z"/>
    <path class="cls-11" d="M290.18,51.22c2.72,0,3.82,1.01,3.82,2.87,0,.25-.03.5-.05.75-.86,6.92-4.68,12.2-10.69,14.92-.25.12-.5.18-.75.18-.86,0-1.46-.73-1.46-1.48,0-.5.28-1.06.98-1.38,5.26-2.54,8.1-6.57,8.86-12.13.1-.83-.13-1.06-1.16-1.06h-9.34c-.88,0-1.13.28-1.13,1.03v3.92c0,.78-.73,1.16-1.49,1.16s-1.48-.38-1.48-1.16v-4.53c0-2.11,1.06-3.09,3.77-3.09h10.12Z"/>
    <path class="cls-11" d="M314.32,52.81c2.09-.03,3.14.8,3.14,2.31,0,.4-.08.86-.23,1.33-1.74,5.86-6.04,11.17-11.52,14.24-.3.15-.58.23-.83.23-.83,0-1.43-.68-1.43-1.43,0-.48.28-1.01.88-1.36,5.01-2.94,8.35-7.17,9.89-11.95.05-.13.08-.25.08-.35,0-.28-.2-.4-.68-.4l-5.64.05c-1.23,1.81-2.67,3.5-4.1,4.78-.38.35-.78.48-1.16.48-.76,0-1.41-.58-1.41-1.33,0-.38.2-.8.63-1.21,2.39-2.16,4.75-5.56,6.06-8.66.28-.65.83-.96,1.38-.96.75,0,1.48.53,1.48,1.33,0,.18-.05.38-.13.58-.33.78-.7,1.56-1.13,2.37l4.71-.05Z"/>
    <path class="cls-11" d="M330.85,57.41c.65-.25,1.38-.43,2.16-.43,1.74,0,2.87.53,3.52,2.39,1.96-.83,4.08-1.58,6.29-2.26.18-.05.35-.08.5-.08.83,0,1.31.68,1.31,1.36,0,.53-.3,1.08-1.01,1.28-2.19.65-4.43,1.41-6.54,2.26.13.93.18,2.04.23,3.35.03.86-.71,1.31-1.43,1.31-.65,0-1.31-.38-1.33-1.16-.03-.96-.08-1.76-.13-2.44-2.62,1.33-3.22,2.47-3.22,3.4,0,.98.91,1.56,3.8,1.56,1.58,0,3.25-.15,4.88-.43,1.01-.18,1.64.58,1.64,1.36,0,.6-.4,1.21-1.26,1.36-1.63.3-3.5.4-5.16.4-4.76,0-6.77-1.58-6.77-4.05,0-2.01,1.18-3.95,5.66-6.19-.33-.93-.86-1.13-1.76-1.13s-2.77.68-5.16,2.59c-.3.23-.6.33-.91.33-.73,0-1.36-.63-1.36-1.33,0-.38.18-.75.58-1.11,1.58-1.38,3.02-3.02,4.25-4.91-.98.08-1.89.1-2.72.12-.91.03-1.38-.65-1.38-1.31s.45-1.28,1.38-1.28c1.18,0,2.59-.08,4.05-.18.43-1.01.81-1.99,1.11-2.92.2-.63.73-.91,1.28-.91.7,0,1.38.45,1.38,1.16,0,.13,0,.25-.05.38-.23.71-.48,1.36-.75,1.99,1.31-.13,2.57-.3,3.65-.5.98-.18,1.51.5,1.51,1.18,0,.55-.35,1.13-1.11,1.26-1.59.28-3.47.55-5.33.73-.63,1.03-1.26,1.99-1.86,2.79l.05.05Z"/>
  </g>
  <g class="cls-4">
    <path class="cls-11" d="M157.28,223.82c-.34-.51-.49-1.02-.49-1.51,0-.55.19-1.06.49-1.51l5.68-8.5c.19-.28.43-.47.64-.47.59,0,1.08.4,1.08.85,0,.17-.04.36-.19.57l-5.29,7.89c-.28.42-.43.83-.43,1.17s.15.74.43,1.17l5.29,7.89c.15.21.19.4.19.57,0,.45-.49.85-1.08.85-.21,0-.45-.19-.64-.47l-5.68-8.5Z"/>
    <path class="cls-11" d="M175.79,220.97c2.68-.77,5.4-1.87,7.44-3.08.25-.15.49-.21.72-.21.7,0,1.23.57,1.23,1.21,0,.36-.19.76-.68,1.04-2.47,1.45-5.63,2.64-8.71,3.36v3.68c0,1.21.66,1.53,3.21,1.53,2.27,0,4.46-.17,6.25-.57.11-.02.21-.04.32-.04.74,0,1.19.62,1.19,1.21,0,.49-.3.98-.98,1.13-1.96.42-4.34.57-6.65.57-4.42,0-5.85-.85-5.85-3.49v-12.18c0-.7.64-1.06,1.25-1.06s1.25.36,1.25,1.06v5.85ZM188.78,214.85c0,1.3-1,2.3-2.27,2.3s-2.3-1-2.3-2.3,1-2.27,2.3-2.27,2.27,1,2.27,2.27ZM187.72,214.85c0-.68-.53-1.21-1.21-1.21s-1.23.53-1.23,1.21.55,1.23,1.23,1.23,1.21-.55,1.21-1.23Z"/>
    <path class="cls-11" d="M241.13,221.2c2.29,0,3.44.6,3.44,1.21s-1.15,1.21-3.44,1.21h-46.54c-2.29,0-3.44-.62-3.44-1.21s1.15-1.21,3.44-1.21h46.54Z"/>
    <path class="cls-11" d="M255.09,218.1c.28.28.38.6.38.91,0,.72-.64,1.4-1.36,1.4-.32,0-.66-.13-.96-.42-.96-.96-1.96-1.85-2.89-2.57-.36-.28-.51-.62-.51-.96,0-.66.62-1.3,1.36-1.3.28,0,.55.08.85.28.98.66,2.13,1.59,3.12,2.66ZM264.44,217.48c.66,0,1.3.47,1.3,1.17,0,.21-.06.45-.21.68-3.02,5.33-7.86,9.18-13.14,11.18-.21.08-.4.11-.57.11-.77,0-1.28-.66-1.28-1.3,0-.47.23-.91.83-1.13,4.83-1.83,9.44-5.5,11.99-10.05.25-.47.68-.66,1.08-.66Z"/>
    <path class="cls-11" d="M277.98,220.8c.3.45.49.96.49,1.51,0,.49-.15,1-.49,1.51l-5.67,8.5c-.19.28-.42.47-.64.47-.6,0-1.08-.4-1.08-.85,0-.17.04-.36.19-.57l5.29-7.89c.3-.42.42-.83.42-1.17s-.13-.74-.42-1.17l-5.29-7.89c-.15-.21-.19-.4-.19-.57,0-.45.49-.85,1.08-.85.21,0,.45.19.64.47l5.67,8.5Z"/>
  </g>
  <circle class="cls-7" cx="210.29" cy="121.43" r="1.61"/>
  <circle class="cls-7" cx="216.47" cy="121.43" r="1.61"/>
  <circle class="cls-7" cx="177.02" cy="107.14" r="1.53"/>
  <circle class="cls-7" cx="182.5" cy="107.14" r="1.53"/>
  <circle class="cls-7" cx="246.71" cy="104.97" r="1.61"/>
  <circle class="cls-7" cx="252.86" cy="104.97" r="1.61"/>
</svg>